<svg width="104" height="93" viewBox="0 0 104 93" fill="none" xmlns="http://www.w3.org/2000/svg">
<path d="M103.132 42.0864H32.2014V92.5329H103.132V42.0864Z" fill="#EABC87"/>
<path d="M71.4066 42.0864H0.475708V92.5329H71.4066V42.0864Z" fill="#EABC87"/>
<path opacity="0.1" d="M32.2073 92.532H56.3568L56.3568 42.0856H32.2073L32.2073 92.532Z" fill="#263238"/>
<path opacity="0.1" d="M0.481672 92.532H24.6311L24.6311 42.0856H0.481672L0.481672 92.532Z" fill="#263238"/>
<path d="M33.8658 89.0623C35.6538 85.4765 37.4183 81.877 39.1592 78.2637L44.3996 67.4121L49.5695 56.5192C51.2869 52.8785 52.9866 49.2259 54.6687 45.5616C52.8768 49.1474 51.1124 52.7469 49.3754 56.3602L44.135 67.2295L38.9592 78.1282C37.2497 81.7533 35.5519 85.398 33.8658 89.0623Z" fill="#FFC727"/>
<path d="M33.8658 45.5616C35.548 49.2259 37.2458 52.8785 38.9592 56.5192L44.135 67.4121L49.3754 78.2637C51.1281 81.8731 52.8925 85.4726 54.6687 89.0623C52.9866 85.398 51.2869 81.7474 49.5695 78.1105L44.4232 67.2295L39.1827 56.3778C37.43 52.7567 35.6577 49.1513 33.8658 45.5616Z" fill="#FFC727"/>
<path d="M2.13965 45.5616C3.82176 49.2259 5.51956 52.8785 7.23304 56.5192L12.4088 67.4121L17.6492 78.2637C19.4019 81.8731 21.1663 85.4726 22.9425 89.0623C21.2604 85.398 19.5607 81.7474 17.8433 78.1105L12.697 67.2295L7.45654 56.3778C5.70385 52.7567 3.93155 49.1513 2.13965 45.5616Z" fill="#FFC727"/>
<path d="M47.8996 42.0864H40.5654V55H47.8996V42.0864Z" fill="#EBEBEB"/>
<path d="M16.1739 42.0864H8.83966V55H16.1739V42.0864Z" fill="#EBEBEB"/>
<path d="M89.7344 81.9809H89.2228V89.2389H89.7344V81.9809Z" fill="#263238"/>
<path d="M90.9635 81.9809H90.4518V89.2389H90.9635V81.9809Z" fill="#263238"/>
<path d="M92.1983 81.9809H91.6866V89.2389H92.1983V81.9809Z" fill="#263238"/>
<path d="M93.4284 81.9809H92.9166V89.2389H93.4284V81.9809Z" fill="#263238"/>
<path d="M94.6626 81.9809H94.1509V89.2389H94.6626V81.9809Z" fill="#263238"/>
<path d="M95.8983 81.9809H95.3867V89.2389H95.8983V81.9809Z" fill="#263238"/>
<path d="M97.1274 81.9809H96.6157V89.2389H97.1274V81.9809Z" fill="#263238"/>
<path d="M98.3626 81.9809H97.851V89.2389H98.3626V81.9809Z" fill="#263238"/>
<path d="M99.5916 81.9809H99.08V89.2389H99.5916V81.9809Z" fill="#263238"/>
<path d="M84.1763 88.685L86.1525 89.2388H81.512L83.4882 88.6791V86.0163C82.0766 85.8278 81.512 84.4316 81.512 81.9867H86.1525C86.1525 84.4257 85.5643 85.8278 84.1763 86.0163V88.685Z" fill="#263238"/>
<path d="M80.435 85.6865H79.2234V89.2389H76.1238V85.6865H74.9064L77.6707 81.9809L80.435 85.6865Z" fill="#263238"/>
<path d="M101.362 0.658447H43.0881V42.1031H101.362V0.658447Z" fill="#EABC87"/>
<path opacity="0.1" d="M43.0821 42.1032H62.9263L62.9263 0.658508H43.0821V42.1032Z" fill="#263238"/>
<path d="M44.4529 39.2471C45.9233 36.3015 47.3799 33.3461 48.8228 30.3808L53.1281 21.4674L57.3745 12.5128C58.7861 9.52397 60.182 6.52535 61.5622 3.51691C60.0918 6.46251 58.6351 9.40812 57.1922 12.3537L52.887 21.2789L48.6405 30.2336C47.2289 33.2341 45.8331 36.2387 44.4529 39.2471Z" fill="#FFC727"/>
<path d="M44.4529 3.51691C45.837 6.52143 47.2329 9.52005 48.6405 12.5128L52.8869 21.4674L57.1746 30.3808C58.6175 33.3461 60.0741 36.3015 61.5445 39.2471C60.1643 36.2426 58.7684 33.244 57.3569 30.2512L53.1281 21.2789L48.8228 12.3832C47.3838 9.42186 45.9272 6.46644 44.4529 3.51691Z" fill="#FFC727"/>
<path d="M55.9869 0.658447H49.9584V11.2685H55.9869V0.658447Z" fill="#EBEBEB"/>
<path d="M90.3521 33.4314H89.9286V39.3933H90.3521V33.4314Z" fill="#263238"/>
<path d="M91.3629 33.4314H90.9395V39.3933H91.3629V33.4314Z" fill="#263238"/>
<path d="M92.3814 33.4314H91.958V39.3933H92.3814V33.4314Z" fill="#263238"/>
<path d="M93.3928 33.4314H92.9694V39.3933H93.3928V33.4314Z" fill="#263238"/>
<path d="M94.4046 33.4314H93.9811V39.3933H94.4046V33.4314Z" fill="#263238"/>
<path d="M95.4155 33.4314H94.992V39.3933H95.4155V33.4314Z" fill="#263238"/>
<path d="M96.4277 33.4314H96.0043V39.3933H96.4277V33.4314Z" fill="#263238"/>
<path d="M97.4454 33.4314H97.0219V39.3933H97.4454V33.4314Z" fill="#263238"/>
<path d="M98.4562 33.4314H98.0327V39.3933H98.4562V33.4314Z" fill="#263238"/>
<path d="M85.7824 38.9521L87.4116 39.4057H83.5945L85.2237 38.9521V36.7605C84.0474 36.6074 83.5945 35.4586 83.5945 33.4496H87.4116C87.4116 35.4527 86.947 36.6074 85.7824 36.7605V38.9521Z" fill="#263238"/>
<path d="M82.7127 36.478H81.7187V39.3942H79.1661V36.478H78.1663L80.4424 33.4381L82.7127 36.478Z" fill="#263238"/>
<path opacity="0.1" d="M101.362 42.1025V39.2452L62.9321 33.9608V42.0966L101.362 42.1025Z" fill="#263238"/>
</svg>
